<?xml version="1.0" encoding="UTF-8"?>
<svg xmlns="http://www.w3.org/2000/svg" width="128" height="128" viewBox="0 0 128 128">
  <defs>
    <filter id="beam-glow" x="-40%" y="-40%" width="180%" height="180%">
      <feGaussianBlur in="SourceGraphic" stdDeviation="3.2" result="blur"/>
      <feMerge>
        <feMergeNode in="blur"/>
        <feMergeNode in="SourceGraphic"/>
      </feMerge>
    </filter>
    <filter id="flash-glow" x="-60%" y="-60%" width="220%" height="220%">
      <feGaussianBlur in="SourceGraphic" stdDeviation="1.6" result="blur"/>
      <feMerge>
        <feMergeNode in="blur"/>
        <feMergeNode in="SourceGraphic"/>
      </feMerge>
    </filter>
    <radialGradient id="screen-tint" cx="50%" cy="45%" r="70%">
      <stop offset="0%" stop-color="#0a121a"/>
      <stop offset="100%" stop-color="#04070a"/>
    </radialGradient>
    <!-- the beam sweeps through phosphor colors: pink to violet to cyan -->
    <linearGradient id="trace-gradient" x1="0%" y1="100%" x2="100%" y2="0%">
      <stop offset="0%" stop-color="#ff5ad1"/>
      <stop offset="35%" stop-color="#9d6bff"/>
      <stop offset="70%" stop-color="#3ae8ff"/>
      <stop offset="100%" stop-color="#7dffb0"/>
    </linearGradient>
  </defs>

  <!-- bezel and screen -->
  <rect x="6" y="6" width="116" height="116" rx="22" fill="#1a1d1a"/>
  <rect x="14" y="14" width="100" height="100" rx="16" fill="url(#screen-tint)"/>

  <!-- graticule -->
  <g stroke="#3a6e8a" stroke-width="1" opacity="0.45">
    <line x1="64" y1="16" x2="64" y2="112"/>
    <line x1="16" y1="64" x2="112" y2="64"/>
  </g>
  <g stroke="#2c5269" stroke-width="0.8" opacity="0.3">
    <line x1="40" y1="16" x2="40" y2="112"/>
    <line x1="88" y1="16" x2="88" y2="112"/>
    <line x1="16" y1="40" x2="112" y2="40"/>
    <line x1="16" y1="88" x2="112" y2="88"/>
  </g>


  <!-- spectrum-tunnel rings, breathing faintly behind the trace -->
  <g fill="none" stroke="#3ae8ff" stroke-width="1.2" filter="url(#beam-glow)">
    <circle cx="64" cy="64" r="17" opacity="0.14"/>
    <circle cx="64" cy="64" r="29" opacity="0.10"/>
    <circle cx="64" cy="64" r="42" opacity="0.07"/>
  </g>
  <!-- true 3:2 Lissajous trace: the P7 glow layer -->
  <path d="M 105.0 64.0 L 104.8 66.6 L 104.1 69.1 L 103.0 71.7 L 101.5 74.2 L 99.5 76.7 L 97.2 79.0 L 94.5 81.4 L 91.4 83.6 L 88.1 85.7 L 84.5 87.8 L 80.7 89.7 L 76.7 91.5 L 72.5 93.2 L 68.3 94.7 L 64.0 96.0 L 59.7 97.3 L 55.5 98.3 L 51.3 99.2 L 47.3 99.9 L 43.5 100.4 L 39.9 100.8 L 36.6 101.0 L 33.5 101.0 L 30.8 100.8 L 28.5 100.4 L 26.5 99.9 L 25.0 99.2 L 23.9 98.3 L 23.2 97.3 L 23.0 96.0 L 23.2 94.7 L 23.9 93.2 L 25.0 91.5 L 26.5 89.7 L 28.5 87.8 L 30.8 85.7 L 33.5 83.6 L 36.6 81.4 L 39.9 79.0 L 43.5 76.7 L 47.3 74.2 L 51.3 71.7 L 55.5 69.1 L 59.7 66.6 L 64.0 64.0 L 68.3 61.4 L 72.5 58.9 L 76.7 56.3 L 80.7 53.8 L 84.5 51.3 L 88.1 49.0 L 91.4 46.6 L 94.5 44.4 L 97.2 42.3 L 99.5 40.2 L 101.5 38.3 L 103.0 36.5 L 104.1 34.8 L 104.8 33.3 L 105.0 32.0 L 104.8 30.7 L 104.1 29.7 L 103.0 28.8 L 101.5 28.1 L 99.5 27.6 L 97.2 27.2 L 94.5 27.0 L 91.4 27.0 L 88.1 27.2 L 84.5 27.6 L 80.7 28.1 L 76.7 28.8 L 72.5 29.7 L 68.3 30.7 L 64.0 32.0 L 59.7 33.3 L 55.5 34.8 L 51.3 36.5 L 47.3 38.3 L 43.5 40.2 L 39.9 42.3 L 36.6 44.4 L 33.5 46.6 L 30.8 49.0 L 28.5 51.3 L 26.5 53.8 L 25.0 56.3 L 23.9 58.9 L 23.2 61.4 L 23.0 64.0 L 23.2 66.6 L 23.9 69.1 L 25.0 71.7 L 26.5 74.2 L 28.5 76.7 L 30.8 79.0 L 33.5 81.4 L 36.6 83.6 L 39.9 85.7 L 43.5 87.8 L 47.3 89.7 L 51.3 91.5 L 55.5 93.2 L 59.7 94.7 L 64.0 96.0 L 68.3 97.3 L 72.5 98.3 L 76.7 99.2 L 80.7 99.9 L 84.5 100.4 L 88.1 100.8 L 91.4 101.0 L 94.5 101.0 L 97.2 100.8 L 99.5 100.4 L 101.5 99.9 L 103.0 99.2 L 104.1 98.3 L 104.8 97.3 L 105.0 96.0 L 104.8 94.7 L 104.1 93.2 L 103.0 91.5 L 101.5 89.7 L 99.5 87.8 L 97.2 85.7 L 94.5 83.6 L 91.4 81.4 L 88.1 79.0 L 84.5 76.7 L 80.7 74.2 L 76.7 71.7 L 72.5 69.1 L 68.3 66.6 L 64.0 64.0 L 59.7 61.4 L 55.5 58.9 L 51.3 56.3 L 47.3 53.8 L 43.5 51.3 L 39.9 49.0 L 36.6 46.6 L 33.5 44.4 L 30.8 42.3 L 28.5 40.2 L 26.5 38.3 L 25.0 36.5 L 23.9 34.8 L 23.2 33.3 L 23.0 32.0 L 23.2 30.7 L 23.9 29.7 L 25.0 28.8 L 26.5 28.1 L 28.5 27.6 L 30.8 27.2 L 33.5 27.0 L 36.6 27.0 L 39.9 27.2 L 43.5 27.6 L 47.3 28.1 L 51.3 28.8 L 55.5 29.7 L 59.7 30.7 L 64.0 32.0 L 68.3 33.3 L 72.5 34.8 L 76.7 36.5 L 80.7 38.3 L 84.5 40.2 L 88.1 42.3 L 91.4 44.4 L 94.5 46.6 L 97.2 49.0 L 99.5 51.3 L 101.5 53.8 L 103.0 56.3 L 104.1 58.9 L 104.8 61.4 L 105.0 64.0"
        fill="none" stroke="url(#trace-gradient)" stroke-width="3.0"
        stroke-linecap="round" stroke-linejoin="round"
        filter="url(#beam-glow)" opacity="0.92"/>
  <!-- blue-white fluorescence where the beam is "now" -->
  <path d="M 105.0 64.0 L 104.8 66.6 L 104.1 69.1 L 103.0 71.7 L 101.5 74.2 L 99.5 76.7 L 97.2 79.0 L 94.5 81.4 L 91.4 83.6 L 88.1 85.7 L 84.5 87.8 L 80.7 89.7 L 76.7 91.5 L 72.5 93.2 L 68.3 94.7 L 64.0 96.0 L 59.7 97.3 L 55.5 98.3 L 51.3 99.2 L 47.3 99.9 L 43.5 100.4 L 39.9 100.8 L 36.6 101.0 L 33.5 101.0 L 30.8 100.8 L 28.5 100.4 L 26.5 99.9 L 25.0 99.2 L 23.9 98.3 L 23.2 97.3 L 23.0 96.0 L 23.2 94.7 L 23.9 93.2 L 25.0 91.5 L 26.5 89.7 L 28.5 87.8 L 30.8 85.7 L 33.5 83.6 L 36.6 81.4 L 39.9 79.0 L 43.5 76.7 L 47.3 74.2 L 51.3 71.7 L 55.5 69.1 L 59.7 66.6 L 64.0 64.0 L 68.3 61.4 L 72.5 58.9 L 76.7 56.3 L 80.7 53.8 L 84.5 51.3 L 88.1 49.0 L 91.4 46.6 L 94.5 44.4 L 97.2 42.3 L 99.5 40.2 L 101.5 38.3 L 103.0 36.5 L 104.1 34.8 L 104.8 33.3 L 105.0 32.0 L 104.8 30.7 L 104.1 29.7 L 103.0 28.8 L 101.5 28.1 L 99.5 27.6 L 97.2 27.2 L 94.5 27.0 L 91.4 27.0 L 88.1 27.2 L 84.5 27.6 L 80.7 28.1 L 76.7 28.8 L 72.5 29.7 L 68.3 30.7 L 64.0 32.0 L 59.7 33.3 L 55.5 34.8 L 51.3 36.5 L 47.3 38.3 L 43.5 40.2 L 39.9 42.3 L 36.6 44.4 L 33.5 46.6 L 30.8 49.0 L 28.5 51.3 L 26.5 53.8 L 25.0 56.3 L 23.9 58.9 L 23.2 61.4 L 23.0 64.0 L 23.2 66.6 L 23.9 69.1 L 25.0 71.7 L 26.5 74.2 L 28.5 76.7 L 30.8 79.0 L 33.5 81.4 L 36.6 83.6 L 39.9 85.7 L 43.5 87.8 L 47.3 89.7 L 51.3 91.5 L 55.5 93.2 L 59.7 94.7 L 64.0 96.0 L 68.3 97.3 L 72.5 98.3 L 76.7 99.2 L 80.7 99.9 L 84.5 100.4 L 88.1 100.8 L 91.4 101.0 L 94.5 101.0 L 97.2 100.8 L 99.5 100.4 L 101.5 99.9 L 103.0 99.2 L 104.1 98.3 L 104.8 97.3 L 105.0 96.0 L 104.8 94.7 L 104.1 93.2 L 103.0 91.5 L 101.5 89.7 L 99.5 87.8 L 97.2 85.7 L 94.5 83.6 L 91.4 81.4 L 88.1 79.0 L 84.5 76.7 L 80.7 74.2 L 76.7 71.7 L 72.5 69.1 L 68.3 66.6 L 64.0 64.0 L 59.7 61.4 L 55.5 58.9 L 51.3 56.3 L 47.3 53.8 L 43.5 51.3 L 39.9 49.0 L 36.6 46.6 L 33.5 44.4 L 30.8 42.3 L 28.5 40.2 L 26.5 38.3 L 25.0 36.5 L 23.9 34.8 L 23.2 33.3 L 23.0 32.0 L 23.2 30.7 L 23.9 29.7 L 25.0 28.8 L 26.5 28.1 L 28.5 27.6 L 30.8 27.2 L 33.5 27.0 L 36.6 27.0 L 39.9 27.2 L 43.5 27.6 L 47.3 28.1 L 51.3 28.8 L 55.5 29.7 L 59.7 30.7 L 64.0 32.0 L 68.3 33.3 L 72.5 34.8 L 76.7 36.5 L 80.7 38.3 L 84.5 40.2 L 88.1 42.3 L 91.4 44.4 L 94.5 46.6 L 97.2 49.0 L 99.5 51.3 L 101.5 53.8 L 103.0 56.3 L 104.1 58.9 L 104.8 61.4 L 105.0 64.0"
        fill="none" stroke="#d8ffe8" stroke-width="1.1"
        stroke-linecap="round" stroke-linejoin="round" opacity="0.8"/>

  <!-- a little Ring oscillogram singing along, gold into pink -->
  <linearGradient id="ring-gradient" x1="0%" y1="0%" x2="100%" y2="100%">
    <stop offset="0%" stop-color="#ffdf87"/>
    <stop offset="100%" stop-color="#ff5ad1"/>
  </linearGradient>
  <path d="M 50.0 91.5 L 51.1 92.3 L 52.0 93.1 L 52.4 94.0 L 52.2 94.8 L 51.5 95.5 L 50.5 96.1 L 49.3 96.4 L 48.2 96.7 L 47.4 97.0 L 46.9 97.5 L 46.8 98.2 L 47.0 99.1 L 47.4 100.3 L 47.7 101.6 L 47.8 102.8 L 47.6 103.8 L 47.0 104.4 L 46.0 104.6 L 44.9 104.4 L 43.6 103.9 L 42.5 103.2 L 41.5 102.7 L 40.7 102.5 L 40.2 102.8 L 39.7 103.4 L 39.2 104.4 L 38.7 105.5 L 38.1 106.5 L 37.3 107.1 L 36.5 107.3 L 35.7 106.9 L 35.0 106.1 L 34.4 104.9 L 33.9 103.7 L 33.5 102.5 L 33.2 101.8 L 32.7 101.4 L 32.0 101.5 L 31.2 101.9 L 30.1 102.5 L 29.0 103.0 L 28.0 103.2 L 27.1 103.1 L 26.6 102.5 L 26.4 101.6 L 26.6 100.4 L 27.0 99.2 L 27.4 98.1 L 27.6 97.3 L 27.5 96.7 L 26.9 96.4 L 26.0 96.2 L 24.8 96.0 L 23.5 95.7 L 22.3 95.3 L 21.5 94.7 L 21.2 93.9 L 21.4 93.1 L 22.1 92.3 L 23.0 91.5 L 24.0 90.8 L 24.7 90.3 L 25.1 89.7 L 25.1 89.1 L 24.6 88.3 L 23.8 87.4 L 23.0 86.3 L 22.3 85.2 L 22.0 84.1 L 22.1 83.2 L 22.8 82.6 L 23.8 82.3 L 25.0 82.2 L 26.3 82.3 L 27.5 82.5 L 28.3 82.4 L 28.9 82.1 L 29.2 81.4 L 29.3 80.4 L 29.4 79.1 L 29.6 77.9 L 30.0 76.9 L 30.6 76.2 L 31.5 76.1 L 32.5 76.5 L 33.5 77.2 L 34.4 78.2 L 35.2 79.2 L 35.9 80.0 L 36.5 80.3 L 37.1 80.2 L 37.8 79.6 L 38.5 78.8 L 39.4 78.0 L 40.3 77.3 L 41.2 77.1 L 41.9 77.3 L 42.5 78.1 L 42.8 79.2 L 42.9 80.5 L 42.8 81.7 L 42.8 82.8 L 43.0 83.5 L 43.5 83.8 L 44.3 83.7 L 45.3 83.5 L 46.6 83.3 L 47.8 83.3 L 48.9 83.5 L 49.5 84.0 L 49.7 84.8 L 49.5 85.7 L 48.9 86.7 L 48.2 87.7 L 47.5 88.5 L 47.2 89.2 L 47.3 89.8 L 47.9 90.3 L 48.8 90.9 L 50.0 91.5"
        fill="none" stroke="url(#ring-gradient)" stroke-width="2.0"
        stroke-linecap="round" stroke-linejoin="round"
        filter="url(#beam-glow)" opacity="0.9"/>
  <path d="M 50.0 91.5 L 51.1 92.3 L 52.0 93.1 L 52.4 94.0 L 52.2 94.8 L 51.5 95.5 L 50.5 96.1 L 49.3 96.4 L 48.2 96.7 L 47.4 97.0 L 46.9 97.5 L 46.8 98.2 L 47.0 99.1 L 47.4 100.3 L 47.7 101.6 L 47.8 102.8 L 47.6 103.8 L 47.0 104.4 L 46.0 104.6 L 44.9 104.4 L 43.6 103.9 L 42.5 103.2 L 41.5 102.7 L 40.7 102.5 L 40.2 102.8 L 39.7 103.4 L 39.2 104.4 L 38.7 105.5 L 38.1 106.5 L 37.3 107.1 L 36.5 107.3 L 35.7 106.9 L 35.0 106.1 L 34.4 104.9 L 33.9 103.7 L 33.5 102.5 L 33.2 101.8 L 32.7 101.4 L 32.0 101.5 L 31.2 101.9 L 30.1 102.5 L 29.0 103.0 L 28.0 103.2 L 27.1 103.1 L 26.6 102.5 L 26.4 101.6 L 26.6 100.4 L 27.0 99.2 L 27.4 98.1 L 27.6 97.3 L 27.5 96.7 L 26.9 96.4 L 26.0 96.2 L 24.8 96.0 L 23.5 95.7 L 22.3 95.3 L 21.5 94.7 L 21.2 93.9 L 21.4 93.1 L 22.1 92.3 L 23.0 91.5 L 24.0 90.8 L 24.7 90.3 L 25.1 89.7 L 25.1 89.1 L 24.6 88.3 L 23.8 87.4 L 23.0 86.3 L 22.3 85.2 L 22.0 84.1 L 22.1 83.2 L 22.8 82.6 L 23.8 82.3 L 25.0 82.2 L 26.3 82.3 L 27.5 82.5 L 28.3 82.4 L 28.9 82.1 L 29.2 81.4 L 29.3 80.4 L 29.4 79.1 L 29.6 77.9 L 30.0 76.9 L 30.6 76.2 L 31.5 76.1 L 32.5 76.5 L 33.5 77.2 L 34.4 78.2 L 35.2 79.2 L 35.9 80.0 L 36.5 80.3 L 37.1 80.2 L 37.8 79.6 L 38.5 78.8 L 39.4 78.0 L 40.3 77.3 L 41.2 77.1 L 41.9 77.3 L 42.5 78.1 L 42.8 79.2 L 42.9 80.5 L 42.8 81.7 L 42.8 82.8 L 43.0 83.5 L 43.5 83.8 L 44.3 83.7 L 45.3 83.5 L 46.6 83.3 L 47.8 83.3 L 48.9 83.5 L 49.5 84.0 L 49.7 84.8 L 49.5 85.7 L 48.9 86.7 L 48.2 87.7 L 47.5 88.5 L 47.2 89.2 L 47.3 89.8 L 47.9 90.3 L 48.8 90.9 L 50.0 91.5"
        fill="none" stroke="#fff3d8" stroke-width="0.8"
        stroke-linecap="round" stroke-linejoin="round" opacity="0.6"/>
  <circle cx="105" cy="64" r="3.2" fill="#eaf6ff" filter="url(#flash-glow)"/>
</svg>
